<svg width="35" height="27" viewBox="0 0 35 27" fill="none" xmlns="http://www.w3.org/2000/svg">
<path id="Vector" d="M33.1825 0.144043H1.79793C1.45111 0.144043 1.11849 0.281007 0.873249 0.524804C0.628009 0.768602 0.490234 1.09926 0.490234 1.44404V23.544C0.490234 24.2336 0.765783 24.8949 1.25626 25.3825C1.74674 25.8701 2.41198 26.144 3.10562 26.144H31.8748C32.5685 26.144 33.2337 25.8701 33.7242 25.3825C34.2147 24.8949 34.4902 24.2336 34.4902 23.544V1.44404C34.4902 1.09926 34.3525 0.768602 34.1072 0.524804C33.862 0.281007 33.5294 0.144043 33.1825 0.144043ZM3.10562 10.544H9.64408V15.744H3.10562V10.544ZM12.2595 10.544H31.8748V15.744H12.2595V10.544ZM3.10562 18.344H9.64408V23.544H3.10562V18.344ZM31.8748 23.544H12.2595V18.344H31.8748V23.544Z" fill="currentColor"/>
</svg>
