<svg xmlns="http://www.w3.org/2000/svg" width="25" height="24" viewBox="0 0 25 24" fill="none">
  <path d="M17.5193 2.4903C18.8446 2.49411 20.1145 3.00241 21.0516 3.90419C21.9888 4.80597 22.517 6.02795 22.521 7.30326V16.9281C22.517 18.2034 21.9888 19.4254 21.0516 20.3272C20.1145 21.229 18.8446 21.7373 17.5193 21.7411H7.51711C6.19181 21.7373 4.92192 21.229 3.98479 20.3272C3.04766 19.4254 2.51943 18.2034 2.51547 16.9281V7.30326C2.51943 6.02795 3.04766 4.80597 3.98479 3.90419C4.92192 3.00241 6.19181 2.49411 7.51711 2.4903H17.5193ZM17.5193 0.56543H7.51711C3.66594 0.56543 0.515137 3.59737 0.515137 7.30326V16.9281C0.515137 20.634 3.66594 23.666 7.51711 23.666H17.5193C21.3705 23.666 24.5213 20.634 24.5213 16.9281V7.30326C24.5213 3.59737 21.3705 0.56543 17.5193 0.56543Z" fill="#181818"/>
  <path d="M19.0191 7.30358C18.7224 7.30358 18.4323 7.21891 18.1856 7.06026C17.9388 6.90162 17.7465 6.67613 17.633 6.41231C17.5194 6.14849 17.4897 5.8582 17.5476 5.57813C17.6055 5.29806 17.7484 5.04081 17.9582 4.83889C18.168 4.63697 18.4354 4.49947 18.7264 4.44376C19.0175 4.38805 19.3192 4.41664 19.5933 4.52592C19.8675 4.63519 20.1018 4.82025 20.2667 5.05768C20.4315 5.29511 20.5195 5.57425 20.5195 5.8598C20.5199 6.04951 20.4814 6.23744 20.4062 6.41279C20.3309 6.58815 20.2204 6.74747 20.081 6.88162C19.9416 7.01577 19.776 7.1221 19.5938 7.19451C19.4116 7.26692 19.2163 7.30399 19.0191 7.30358ZM12.5177 8.26576C13.309 8.26576 14.0826 8.49157 14.7406 8.91465C15.3986 9.33772 15.9114 9.93905 16.2143 10.6426C16.5171 11.3461 16.5964 12.1203 16.442 12.8672C16.2876 13.614 15.9065 14.3001 15.3469 14.8386C14.7874 15.377 14.0744 15.7437 13.2982 15.8923C12.5221 16.0409 11.7176 15.9646 10.9865 15.6732C10.2553 15.3818 9.63043 14.8883 9.19077 14.2551C8.75112 13.6219 8.51645 12.8775 8.51645 12.116C8.51758 11.0952 8.9395 10.1165 9.68963 9.39468C10.4398 8.67285 11.4568 8.26685 12.5177 8.26576ZM12.5177 6.34089C11.3307 6.34089 10.1703 6.67959 9.18338 7.31417C8.19643 7.94875 7.4272 8.85071 6.97296 9.90597C6.51871 10.9612 6.39986 12.1224 6.63143 13.2427C6.863 14.363 7.4346 15.392 8.27393 16.1997C9.11326 17.0073 10.1826 17.5574 11.3468 17.7802C12.511 18.003 13.7177 17.8887 14.8143 17.4515C15.911 17.0144 16.8483 16.2742 17.5078 15.3245C18.1672 14.3748 18.5192 13.2582 18.5192 12.116C18.5192 10.5844 17.8869 9.11543 16.7614 8.03239C15.6359 6.94934 14.1094 6.34089 12.5177 6.34089Z" fill="#181818"/>
</svg>