<svg xmlns="http://www.w3.org/2000/svg" width="24" height="20" viewBox="0 0 24 20" fill="none">
  <path d="M23.4849 3.05293C22.6162 3.4301 21.6971 3.67859 20.7567 3.79054C21.745 3.2122 22.4883 2.29342 22.8471 1.20649C21.9126 1.75251 20.892 2.13563 19.8289 2.33942C19.3813 1.8706 18.8429 1.49763 18.2465 1.2432C17.6501 0.988771 17.0082 0.858186 16.3597 0.859383C13.7342 0.859383 11.6096 2.95169 11.6096 5.53091C11.6077 5.88967 11.6488 6.24736 11.7321 6.59635C9.84945 6.50815 8.00596 6.02823 6.31956 5.1873C4.63317 4.34636 3.14099 3.16292 1.93851 1.7127C1.51665 2.42337 1.29355 3.23422 1.29252 4.06051C1.29252 5.68036 2.13824 7.11219 3.41527 7.95104C2.65867 7.9331 1.91757 7.73299 1.25489 7.3677V7.42556C1.25489 9.69141 2.8952 11.5764 5.06619 12.0055C4.65794 12.1142 4.23724 12.1693 3.81473 12.1694C3.51493 12.1699 3.21581 12.1409 2.92173 12.0826C3.52527 13.9387 5.28184 15.2886 7.36261 15.3271C5.67184 16.6292 3.596 17.333 1.46138 17.3278C1.08247 17.3273 0.703925 17.3047 0.327637 17.2604C2.4992 18.646 5.02346 19.379 7.59998 19.3719C16.3496 19.3719 21.1296 12.2514 21.1296 6.07568C21.1296 5.8732 21.1243 5.67072 21.1146 5.47306C22.0424 4.81358 22.8451 3.99404 23.4849 3.05293Z" fill="#181818"/>
</svg>